<?xml version="1.0" encoding="UTF-8"?>
<!-- هدية (Hadiyya, „das Geschenk") – Wortbild der Marke HDIA Atelier.
     PLATZHALTER in Aref Ruqaa (vektorisiert). Später 1:1 durch Brahims
     handgemalte Version ersetzen: nur diese Datei tauschen.
     fill erbt currentColor → funktioniert auf hell & dunkel. -->
<svg xmlns="http://www.w3.org/2000/svg" viewBox="0 0 1257 827" fill="currentColor" fill-rule="evenodd" aria-hidden="true">
<path d="M 196.500 15.956 C 150.850 24.607, 112.655 31.869, 111.623 32.093 C 110.281 32.384, 102.091 47.608, 82.891 85.500 C 68.120 114.650, 56.028 138.748, 56.018 139.051 C 56.008 139.354, 78.162 135.442, 105.250 130.357 C 212.819 110.165, 224.580 107.949, 226.718 107.473 C 228.510 107.073, 234.029 96.812, 255.468 54.027 C 270.060 24.904, 282 0.834, 282 0.538 C 282 -0.275, 284.983 -0.813, 196.500 15.956 M 1164.366 62.053 C 1131.499 66.340, 1087.663 98.348, 1045.537 148.821 C 1036.480 159.672, 1001.354 206.105, 994.190 216.697 C 985.277 229.873, 973 255.951, 973 261.708 C 973 263.291, 973.760 264.153, 975.554 264.603 C 979.121 265.498, 986.955 264.613, 990.449 262.920 C 994.311 261.048, 1006.655 246.320, 1025.999 220.500 C 1046.011 193.788, 1055.972 184.148, 1074.275 173.776 C 1095.031 162.015, 1107.552 162.827, 1123.139 176.946 C 1131.216 184.261, 1135.229 190.269, 1141.209 204 C 1163.387 254.915, 1173.996 313.013, 1173.999 383.559 C 1174 401.317, 1173.673 408.022, 1172.750 409.163 C 1167.502 415.651, 1129.826 432.595, 1102.948 440.556 C 1090.880 444.130, 1062.762 451.003, 1062.211 450.513 C 1062.052 450.371, 1071.775 430.736, 1083.818 406.878 C 1095.860 383.020, 1106.690 360.575, 1107.883 357 C 1111.407 346.446, 1112.617 333.688, 1111.179 322.250 C 1107.503 293.023, 1095.424 271.269, 1078.139 262.751 C 1072.631 260.036, 1070.679 259.608, 1063.587 259.558 C 1056.029 259.504, 1054.790 259.800, 1047.533 263.386 C 1025.330 274.359, 983.933 327.440, 951.513 386.505 C 938.054 411.026, 920.569 447.128, 914.329 463.282 C 913.433 465.602, 912.382 467.862, 911.994 468.305 C 911.607 468.748, 898.737 471.551, 883.395 474.534 C 859.236 479.231, 853.893 479.959, 843.500 479.972 C 819.812 480, 805.561 474.285, 797.528 461.535 C 791.046 451.248, 787.907 440.563, 787.090 426 C 786.509 415.667, 786.461 415.500, 784.036 415.500 C 780.992 415.500, 775.909 422.508, 767.310 438.559 C 755.428 460.737, 748.537 479.132, 744.708 498.890 L 742.500 510.281 738 512.222 C 730.104 515.628, 716.013 518.825, 697.500 521.412 C 655.530 527.276, 639.423 529.065, 589 533.465 C 528.693 538.727, 502.081 542.432, 462.756 551.039 C 444.067 555.130, 442.539 555.642, 439.710 558.768 C 435.548 563.367, 441.949 568.602, 467 581.088 C 489.183 592.145, 544.426 615.849, 569.037 624.871 C 595.039 634.404, 627.575 639.944, 650 638.657 C 684.790 636.662, 704.485 622.745, 733.009 580 C 736.496 574.775, 741.127 568.080, 743.300 565.122 L 747.253 559.743 750.376 565.578 C 757.111 578.159, 770.104 588.786, 784.115 593.173 C 790.352 595.126, 793.598 595.478, 805 595.438 C 823.211 595.373, 843.270 591.355, 879.077 580.601 C 918.214 568.847, 918.142 568.860, 948.500 567.947 C 976.493 567.105, 986.184 566.258, 1006.500 562.882 C 1064.340 553.269, 1116.869 525.963, 1156.533 484.890 C 1203.794 435.951, 1242.486 368.992, 1252.393 319 C 1256.216 299.703, 1257.406 266.338, 1255.027 245.076 C 1253.258 229.262, 1238.377 143.165, 1235.012 129.279 C 1229.145 105.061, 1221.929 90.090, 1210.215 77.829 C 1196.927 63.921, 1184.043 59.488, 1164.366 62.053 M 168 203.516 C 153.051 206.257, 131.698 219.423, 114.808 236.313 C 102.344 248.777, 76.999 283.515, 58.655 313.277 C 28.168 362.739, 8.859 407.561, 1.934 444.943 C -0.330 457.170, -0.490 464.578, 1.361 471.500 C 8.171 496.954, 38.938 517.110, 71.101 517.186 C 98.453 517.251, 135.690 499.629, 159.223 475.485 C 162.371 472.256, 165.108 469.813, 165.304 470.057 C 165.501 470.301, 168.022 505.150, 170.908 547.500 C 175.488 614.722, 176.003 625.364, 174.965 631.305 C 174.311 635.047, 174.015 638.348, 174.307 638.640 C 175.102 639.435, 200.153 636.305, 219.952 632.936 C 284.873 621.892, 316.964 606.966, 348.500 573.148 C 384.525 534.516, 409.194 491.305, 416.949 453.251 C 423.044 423.337, 423.008 385.044, 416.849 347 C 413.859 328.530, 404.746 294.060, 401.022 287.129 C 400.072 285.361, 401.632 283.192, 363.234 339.658 L 331.165 386.816 337.124 408.158 C 348.137 447.601, 354 472.861, 354 480.863 C 354 484.334, 353.636 484.726, 346.250 489.212 C 324.730 502.284, 301.317 509.493, 254.500 517.462 C 242.360 519.528, 241.662 519.501, 242.995 517.009 C 243.780 515.543, 241.956 483.937, 236.086 397.259 C 225.969 247.878, 226.447 253.940, 224.034 244.500 C 216.360 214.490, 194.671 198.626, 168 203.516 M 104 312.880 C 92.022 316.800, 65.534 340.068, 59.973 351.556 C 56.254 359.239, 58.259 367.060, 66.834 378.310 C 73.816 387.470, 87.760 395.804, 102.500 399.625 C 112.304 402.167, 133.642 402.182, 144.222 399.656 C 151.831 397.839, 151.956 397.758, 152.717 394.156 C 153.878 388.661, 153.463 364.580, 152.052 355.577 C 147.005 323.371, 138.345 312.984, 116 312.337 C 110.775 312.186, 105.375 312.430, 104 312.880 M 1003.147 376.115 C 991.503 378.298, 977.031 392.985, 967.275 412.519 C 963.357 420.364, 962.730 423.284, 963.972 427.898 C 965.104 432.100, 971.772 440.283, 976.318 443.047 C 979.120 444.751, 979.428 444.733, 985.857 442.493 C 1002.224 436.790, 1017.548 429.377, 1029.500 421.380 C 1042.470 412.702, 1041.656 414.789, 1036.588 403.202 C 1026.899 381.048, 1017.488 373.425, 1003.147 376.115 M 449.500 688.556 C 448.950 688.775, 412.275 695.716, 368 703.980 C 323.725 712.244, 286.585 719.214, 285.466 719.468 C 283.923 719.818, 276.957 732.748, 256.610 773.025 C 241.857 802.227, 229.972 826.306, 230.199 826.532 C 230.890 827.223, 400.161 795.637, 402.062 794.462 C 402.622 794.116, 414.988 770.020, 429.542 740.916 C 455.416 689.176, 455.943 688.002, 453.252 688.079 C 451.738 688.122, 450.050 688.337, 449.500 688.556"/>
</svg>
